<svg xmlns="http://www.w3.org/2000/svg" width="805" height="600"><rect width="805" height="600" x="0" y="0" fill="#FFFFFF" id="background"/><g transform="translate(10,10)" id="viz"><g><rect x="0" y="152.12410359746394" height="184.79701297931575" width="5" fill="black"><title>Modern orchestra: 128</title></rect><rect x="780" y="309.94577135067846" height="86.62359983405457" width="5" fill="black"><title>Brass: 60</title></rect><rect x="0" y="15.425531914893968" height="121.27303976767637" width="5" fill="black"><title>Early Romantic orchestra: 84</title></rect><rect x="780" y="411.9949030996267" height="75.07378652284734" width="5" fill="black"><title>Woodwinds: 52</title></rect><rect x="0" y="352.3466484916733" height="161.69738635690163" width="5" fill="black"><title>Late Romantic orchestra: 112</title></rect><rect x="780" y="502.49422153736765" height="54.861613228234376" width="5" fill="black"><title>Percussion: 38</title></rect><rect x="0" y="529.4695667634685" height="50.53043323653151" width="5" fill="black"><title>Classical orchestra: 35</title></rect><rect x="780" y="572.7813666804956" height="7.21863331950442" width="5" fill="black"><title>Keyboards: 5</title></rect><rect x="780" y="0" height="294.52023943578484" width="5" fill="black"><title>Strings: 204</title></rect></g><g class="links" fill="none" stroke-opacity="1"><path d="M5,272.67528003318967C392.5,272.67528003318967,392.5,343.8733479523498,780,343.8733479523498" stroke="#d62728" style="stroke-width: 33.2057; mix-blend-mode: multiply;"><title>Modern orchestra → Brass: 23</title></path><path d="M5,115.04267172405642C392.5,115.04267172405642,392.5,420.65726308303203,780,420.65726308303203" stroke="#ff7f0e" style="stroke-width: 17.3247; mix-blend-mode: multiply;"><title>Early Romantic orchestra → Woodwinds: 12</title></path><path d="M5,480.83832157885405C392.5,480.83832157885405,392.5,463.9690630000591,780,463.9690630000591" stroke="#2ca02c" style="stroke-width: 23.0996; mix-blend-mode: multiply;"><title>Late Romantic orchestra → Woodwinds: 16</title></path><path d="M5,130.20180169501606C392.5,130.20180169501606,392.5,508.99099152492175,780,508.99099152492175" stroke="#ff7f0e" style="stroke-width: 12.9935; mix-blend-mode: multiply;"><title>Early Romantic orchestra → Percussion: 9</title></path><path d="M5,501.77235820541733C392.5,501.77235820541733,392.5,545.0841581224445,780,545.0841581224445" stroke="#2ca02c" style="stroke-width: 18.7684; mix-blend-mode: multiply;"><title>Late Romantic orchestra → Percussion: 13</title></path><path d="M5,322.48384993777086C392.5,322.48384993777086,392.5,525.5938481597822,780,525.5938481597822" stroke="#d62728" style="stroke-width: 20.2122; mix-blend-mode: multiply;"><title>Modern orchestra → Percussion: 14</title></path><path d="M5,571.3376400165947C392.5,571.3376400165947,392.5,481.29378296686986,780,481.29378296686986" stroke="#1f77b4" style="stroke-width: 11.5498; mix-blend-mode: multiply;"><title>Classical orchestra → Woodwinds: 8</title></path><path d="M5,300.8279499792573C392.5,300.8279499792573,392.5,440.86943637764466,780,440.86943637764466" stroke="#d62728" style="stroke-width: 23.0996; mix-blend-mode: multiply;"><title>Modern orchestra → Woodwinds: 16</title></path><path d="M5,512.600308184674C392.5,512.600308184674,392.5,578.5562733360995,780,578.5562733360995" stroke="#2ca02c" style="stroke-width: 2.88745; mix-blend-mode: multiply;"><title>Late Romantic orchestra → Keyboards: 2</title></path><path d="M5,334.75552658092863C392.5,334.75552658092863,392.5,574.9469566763469,780,574.9469566763469" stroke="#d62728" style="stroke-width: 4.33118; mix-blend-mode: multiply;"><title>Modern orchestra → Keyboards: 3</title></path><path d="M5,543.184970070527C392.5,543.184970070527,392.5,280.8048361287263,780,280.8048361287263" stroke="#1f77b4" style="stroke-width: 27.4308; mix-blend-mode: multiply;"><title>Classical orchestra → Strings: 19</title></path><path d="M5,52.240561844367164C392.5,52.240561844367164,392.5,36.81502992947319,780,36.81502992947319" stroke="#ff7f0e" style="stroke-width: 73.6301; mix-blend-mode: multiply;"><title>Early Romantic orchestra → Strings: 51</title></path><path d="M5,397.10217507260137C392.5,397.10217507260137,392.5,222.3339062407396,780,222.3339062407396" stroke="#2ca02c" style="stroke-width: 89.5111; mix-blend-mode: multiply;"><title>Late Romantic orchestra → Strings: 62</title></path><path d="M5,204.0982634978966C392.5,204.0982634978966,392.5,125.60421975937886,780,125.60421975937886" stroke="#d62728" style="stroke-width: 103.948; mix-blend-mode: multiply;"><title>Modern orchestra → Strings: 72</title></path><path d="M5,97.71795175724553C392.5,97.71795175724553,392.5,318.6081313340838,780,318.6081313340838" stroke="#ff7f0e" style="stroke-width: 17.3247; mix-blend-mode: multiply;"><title>Early Romantic orchestra → Brass: 12</title></path><path d="M5,561.2315533692887C392.5,561.2315533692887,392.5,392.2381911930302,780,392.2381911930302" stroke="#1f77b4" style="stroke-width: 8.66236; mix-blend-mode: multiply;"><title>Classical orchestra → Brass: 6</title></path><path d="M5,455.57310496058795C392.5,455.57310496058795,392.5,374.1916078942688,780,374.1916078942688" stroke="#2ca02c" style="stroke-width: 27.4308; mix-blend-mode: multiply;"><title>Late Romantic orchestra → Brass: 19</title></path><path d="M5,578.5562733360995C392.5,578.5562733360995,392.5,555.912108101701,780,555.912108101701" stroke="#1f77b4" style="stroke-width: 2.88745; mix-blend-mode: multiply;"><title>Classical orchestra → Percussion: 2</title></path></g><g><text x="9" y="244.52261008712182" text-anchor="start"><tspan alignment-baseline="middle" style="font-family: Arial, sans-serif; font-size: 10px; fill: black; font-weight: bold;">Modern orchestra</tspan></text><text x="776" y="353.25757126770577" text-anchor="end"><tspan alignment-baseline="middle" style="font-family: Arial, sans-serif; font-size: 10px; fill: black; font-weight: bold;">Brass</tspan></text><text x="9" y="76.06205179873216" text-anchor="start"><tspan alignment-baseline="middle" style="font-family: Arial, sans-serif; font-size: 10px; fill: black; font-weight: bold;">Early Romantic orchestra</tspan></text><text x="776" y="449.5317963610504" text-anchor="end"><tspan alignment-baseline="middle" style="font-family: Arial, sans-serif; font-size: 10px; fill: black; font-weight: bold;">Woodwinds</tspan></text><text x="9" y="433.1953416701241" text-anchor="start"><tspan alignment-baseline="middle" style="font-family: Arial, sans-serif; font-size: 10px; fill: black; font-weight: bold;">Late Romantic orchestra</tspan></text><text x="776" y="529.9250281514849" text-anchor="end"><tspan alignment-baseline="middle" style="font-family: Arial, sans-serif; font-size: 10px; fill: black; font-weight: bold;">Percussion</tspan></text><text x="9" y="554.7347833817342" text-anchor="start"><tspan alignment-baseline="middle" style="font-family: Arial, sans-serif; font-size: 10px; fill: black; font-weight: bold;">Classical orchestra</tspan></text><text x="776" y="576.3906833402477" text-anchor="end"><tspan alignment-baseline="middle" style="font-family: Arial, sans-serif; font-size: 10px; fill: black; font-weight: bold;">Keyboards</tspan></text><text x="776" y="147.26011971789242" text-anchor="end"><tspan alignment-baseline="middle" style="font-family: Arial, sans-serif; font-size: 10px; fill: black; font-weight: bold;">Strings</tspan></text></g></g></svg>