<svg xmlns="http://www.w3.org/2000/svg" width="805" height="600"><rect width="805" height="600" x="0" y="0" fill="#FFFFFF" id="background"/><g transform="translate(10,10)" id="viz"><g><rect x="0" y="52.16568047337287" height="241.60946745562146" width="5" fill="black"><title>Facultad: 32</title></rect><rect x="390" y="293.31755424063124" height="151.00591715976338" width="5" fill="black"><title>Mañana: 20</title></rect><rect x="390" y="459.1952662721895" height="120.80473372781051" width="5" fill="black"><title>Tarde: 16</title></rect><rect x="390" y="59.487179487178885" height="218.9585798816575" width="5" fill="black"><title>Noche: 29</title></rect><rect x="0" y="308.6469428007892" height="105.70414201183445" width="5" fill="black"><title>Recreativo: 14</title></rect><rect x="0" y="429.22287968441856" height="90.60355029585776" width="5" fill="black"><title>Tramite: 12</title></rect><rect x="0" y="534.6982248520711" height="45.30177514792888" width="5" fill="black"><title>Otro: 6</title></rect><rect x="780" y="150.77712031558184" height="90.60355029585807" width="5" fill="black"><title>Lunes: 12</title></rect><rect x="780" y="354.17751479289956" height="60.402366863905286" width="5" fill="black"><title>Martes: 8</title></rect><rect x="780" y="542.248520710059" height="37.75147928994102" width="5" fill="black"><title>Miércoles: 5</title></rect><rect x="780" y="0" height="135.90532544378695" width="5" fill="black"><title>Jueves: 18</title></rect><rect x="780" y="256.2524654832348" height="83.0532544378699" width="5" fill="black"><title>Viernes: 11</title></rect><rect x="780" y="489.62524654832345" height="37.75147928994062" width="5" fill="black"><title>Domingo: 5</title></rect><rect x="780" y="429.4516765285997" height="45.30177514792888" width="5" fill="black"><title>Sábado: 6</title></rect></g><g class="links" fill="none" stroke-opacity="1"><path d="M5,210.72189349112458C197.5,210.72189349112458,197.5,338.6193293885603,390,338.6193293885603" stroke="#1f77b4" style="stroke-width: 90.6036; mix-blend-mode: multiply;"><title>Facultad → Mañana: 12</title></path><path d="M5,274.8994082840241C197.5,274.8994082840241,197.5,478.0710059171598,390,478.0710059171598" stroke="#1f77b4" style="stroke-width: 37.7515; mix-blend-mode: multiply;"><title>Facultad → Tarde: 5</title></path><path d="M5,108.79289940828421C197.5,108.79289940828421,197.5,116.11439842209022,390,116.11439842209022" stroke="#1f77b4" style="stroke-width: 113.254; mix-blend-mode: multiply;"><title>Facultad → Noche: 15</title></path><path d="M5,406.80078895463544C197.5,406.80078895463544,197.5,504.4970414201187,390,504.4970414201187" stroke="#9467bd" style="stroke-width: 15.1006; mix-blend-mode: multiply;"><title>Recreativo → Tarde: 2</title></path><path d="M5,353.94871794871824C197.5,353.94871794871824,197.5,218.0433925049306,390,218.0433925049306" stroke="#9467bd" style="stroke-width: 90.6036; mix-blend-mode: multiply;"><title>Recreativo → Noche: 12</title></path><path d="M5,463.1992110453653C197.5,463.1992110453653,197.5,402.7968441814597,390,402.7968441814597" stroke="#e377c2" style="stroke-width: 37.7515; mix-blend-mode: multiply;"><title>Tramite → Mañana: 5</title></path><path d="M5,500.95069033530626C197.5,500.95069033530626,197.5,530.9230769230772,390,530.9230769230772" stroke="#e377c2" style="stroke-width: 37.7515; mix-blend-mode: multiply;"><title>Tramite → Tarde: 5</title></path><path d="M5,436.77317554240676C197.5,436.77317554240676,197.5,270.89546351084783,390,270.89546351084783" stroke="#e377c2" style="stroke-width: 15.1006; mix-blend-mode: multiply;"><title>Tramite → Noche: 2</title></path><path d="M5,546.0236686390533C197.5,546.0236686390533,197.5,432.9980276134125,390,432.9980276134125" stroke="#d62728" style="stroke-width: 22.6509; mix-blend-mode: multiply;"><title>Otro → Mañana: 3</title></path><path d="M5,568.6745562130179C197.5,568.6745562130179,197.5,561.1242603550301,390,561.1242603550301" stroke="#d62728" style="stroke-width: 22.6509; mix-blend-mode: multiply;"><title>Otro → Tarde: 3</title></path><path d="M395,357.4950690335306C587.5,357.4950690335306,587.5,207.404339250493,780,207.404339250493" stroke="#ff7f0e" style="stroke-width: 52.8521; mix-blend-mode: multiply;"><title>Mañana → Lunes: 7</title></path><path d="M395,406.57199211045395C587.5,406.57199211045395,587.5,384.37869822485237,780,384.37869822485237" stroke="#ff7f0e" style="stroke-width: 30.2012; mix-blend-mode: multiply;"><title>Mañana → Martes: 4</title></path><path d="M395,436.77317554240676C587.5,436.77317554240676,587.5,549.7988165680472,780,549.7988165680472" stroke="#ff7f0e" style="stroke-width: 15.1006; mix-blend-mode: multiply;"><title>Mañana → Miércoles: 2</title></path><path d="M395,312.19329388560175C587.5,312.19329388560175,587.5,101.92899408284038,780,101.92899408284038" stroke="#ff7f0e" style="stroke-width: 37.7515; mix-blend-mode: multiply;"><title>Mañana → Jueves: 5</title></path><path d="M395,387.69625246548327C587.5,387.69625246548327,587.5,297.77909270216975,780,297.77909270216975" stroke="#ff7f0e" style="stroke-width: 7.5503; mix-blend-mode: multiply;"><title>Mañana → Viernes: 1</title></path><path d="M395,425.4477317554243C587.5,425.4477317554243,587.5,516.051282051282,780,516.051282051282" stroke="#ff7f0e" style="stroke-width: 7.5503; mix-blend-mode: multiply;"><title>Mañana → Domingo: 1</title></path><path d="M395,478.0710059171598C587.5,478.0710059171598,587.5,237.6055226824458,780,237.6055226824458" stroke="#8c564b" style="stroke-width: 7.5503; mix-blend-mode: multiply;"><title>Tarde → Lunes: 1</title></path><path d="M395,527.1479289940833C587.5,527.1479289940833,587.5,407.029585798817,780,407.029585798817" stroke="#8c564b" style="stroke-width: 15.1006; mix-blend-mode: multiply;"><title>Tarde → Martes: 2</title></path><path d="M395,568.6745562130183C587.5,568.6745562130183,587.5,568.6745562130176,780,568.6745562130176" stroke="#8c564b" style="stroke-width: 22.6509; mix-blend-mode: multiply;"><title>Tarde → Miércoles: 3</title></path><path d="M395,466.7455621301777C587.5,466.7455621301777,587.5,128.35502958579892,780,128.35502958579892" stroke="#8c564b" style="stroke-width: 15.1006; mix-blend-mode: multiply;"><title>Tarde → Jueves: 2</title></path><path d="M395,500.72189349112443C587.5,500.72189349112443,587.5,320.42998027613436,780,320.42998027613436" stroke="#8c564b" style="stroke-width: 37.7515; mix-blend-mode: multiply;"><title>Tarde → Viernes: 5</title></path><path d="M395,542.2485207100597C587.5,542.2485207100597,587.5,467.2031558185407,780,467.2031558185407" stroke="#8c564b" style="stroke-width: 15.1006; mix-blend-mode: multiply;"><title>Tarde → Sábado: 2</title></path><path d="M395,553.5739644970419C587.5,553.5739644970419,587.5,523.6015779092702,780,523.6015779092702" stroke="#8c564b" style="stroke-width: 7.5503; mix-blend-mode: multiply;"><title>Tarde → Domingo: 1</title></path><path d="M395,157.64102564102515C587.5,157.64102564102515,587.5,165.87771203155825,780,165.87771203155825" stroke="#2ca02c" style="stroke-width: 30.2012; mix-blend-mode: multiply;"><title>Noche → Lunes: 4</title></path><path d="M395,218.04339250493044C587.5,218.04339250493044,587.5,361.72781065088776,780,361.72781065088776" stroke="#2ca02c" style="stroke-width: 15.1006; mix-blend-mode: multiply;"><title>Noche → Martes: 2</title></path><path d="M395,101.01380670611383C587.5,101.01380670611383,587.5,41.526627218934934,780,41.526627218934934" stroke="#2ca02c" style="stroke-width: 83.0533; mix-blend-mode: multiply;"><title>Noche → Jueves: 11</title></path><path d="M395,191.6173570019719C587.5,191.6173570019719,587.5,275.1282051282053,780,275.1282051282053" stroke="#2ca02c" style="stroke-width: 37.7515; mix-blend-mode: multiply;"><title>Noche → Viernes: 5</title></path><path d="M395,240.69428007889502C587.5,240.69428007889502,587.5,444.5522682445761,780,444.5522682445761" stroke="#2ca02c" style="stroke-width: 30.2012; mix-blend-mode: multiply;"><title>Noche → Sábado: 4</title></path><path d="M395,267.12031558185356C587.5,267.12031558185356,587.5,500.9506903353056,780,500.9506903353056" stroke="#2ca02c" style="stroke-width: 22.6509; mix-blend-mode: multiply;"><title>Noche → Domingo: 3</title></path></g><g><text x="9" y="172.9704142011836" text-anchor="start"><tspan alignment-baseline="middle" style="font-family: Arial, sans-serif; font-size: 10px; fill: black; font-weight: bold;">Facultad</tspan></text><text x="399" y="368.82051282051293" text-anchor="start"><tspan alignment-baseline="middle" style="font-family: Arial, sans-serif; font-size: 10px; fill: black; font-weight: bold;">Mañana</tspan></text><text x="399" y="519.5976331360947" text-anchor="start"><tspan alignment-baseline="middle" style="font-family: Arial, sans-serif; font-size: 10px; fill: black; font-weight: bold;">Tarde</tspan></text><text x="399" y="168.96646942800763" text-anchor="start"><tspan alignment-baseline="middle" style="font-family: Arial, sans-serif; font-size: 10px; fill: black; font-weight: bold;">Noche</tspan></text><text x="9" y="361.49901380670644" text-anchor="start"><tspan alignment-baseline="middle" style="font-family: Arial, sans-serif; font-size: 10px; fill: black; font-weight: bold;">Recreativo</tspan></text><text x="9" y="474.52465483234744" text-anchor="start"><tspan alignment-baseline="middle" style="font-family: Arial, sans-serif; font-size: 10px; fill: black; font-weight: bold;">Tramite</tspan></text><text x="9" y="557.3491124260356" text-anchor="start"><tspan alignment-baseline="middle" style="font-family: Arial, sans-serif; font-size: 10px; fill: black; font-weight: bold;">Otro</tspan></text><text x="776" y="196.0788954635109" text-anchor="end"><tspan alignment-baseline="middle" style="font-family: Arial, sans-serif; font-size: 10px; fill: black; font-weight: bold;">Lunes</tspan></text><text x="776" y="384.3786982248522" text-anchor="end"><tspan alignment-baseline="middle" style="font-family: Arial, sans-serif; font-size: 10px; fill: black; font-weight: bold;">Martes</tspan></text><text x="776" y="561.1242603550295" text-anchor="end"><tspan alignment-baseline="middle" style="font-family: Arial, sans-serif; font-size: 10px; fill: black; font-weight: bold;">Miércoles</tspan></text><text x="776" y="67.95266272189347" text-anchor="end"><tspan alignment-baseline="middle" style="font-family: Arial, sans-serif; font-size: 10px; fill: black; font-weight: bold;">Jueves</tspan></text><text x="776" y="297.77909270216975" text-anchor="end"><tspan alignment-baseline="middle" style="font-family: Arial, sans-serif; font-size: 10px; fill: black; font-weight: bold;">Viernes</tspan></text><text x="776" y="508.5009861932938" text-anchor="end"><tspan alignment-baseline="middle" style="font-family: Arial, sans-serif; font-size: 10px; fill: black; font-weight: bold;">Domingo</tspan></text><text x="776" y="452.10256410256414" text-anchor="end"><tspan alignment-baseline="middle" style="font-family: Arial, sans-serif; font-size: 10px; fill: black; font-weight: bold;">Sábado</tspan></text></g></g></svg>